<?xml version="1.0" standalone="no"?><!DOCTYPE svg PUBLIC "-//W3C//DTD SVG 1.1//EN" "http://www.w3.org/Graphics/SVG/1.1/DTD/svg11.dtd"><svg t="1632125234470" class="icon" viewBox="0 0 1024 1024" version="1.1" xmlns="http://www.w3.org/2000/svg" p-id="7535" width="128" height="128" xmlns:xlink="http://www.w3.org/1999/xlink"><defs><style type="text/css"></style></defs><path d="M306.1 144.3c-5.2 0-10.1 0.9-14.8 2.2-9.1-6.1-20.1-9.7-31.8-9.7-27.1 0-49.9 19.1-55.7 44.5-0.5 0-1-0.2-1.5-0.2-31.5 0-57.2 25.7-57.2 57.2v97.1c0 31.5 25.7 57.2 57.2 57.2 27.1 0 49.9-19.1 55.7-44.5 0.5 0 1 0.2 1.5 0.2 5.2 0 10.1-0.9 14.8-2.2 9.1 6.1 20.1 9.7 31.8 9.7 31.5 0 57.2-25.7 57.2-57.2v-97.1c0-31.5-25.7-57.2-57.2-57.2zM660.3 139.2c5.2 0 10.1 0.9 14.8 2.2 9.1-6.1 20.1-9.7 31.8-9.7 27.1 0 49.9 19.1 55.7 44.5 0.5 0 1-0.2 1.5-0.2 31.5 0 57.2 25.7 57.2 57.2v97.1c0 31.5-25.7 57.2-57.2 57.2-27.1 0-49.9-19.1-55.7-44.5-0.5 0-1 0.2-1.5 0.2-5.2 0-10.1-0.9-14.8-2.2-9.1 6.1-20.1 9.7-31.8 9.7-31.5 0-57.2-25.7-57.2-57.2v-97.1c0-31.4 25.8-57.2 57.2-57.2z" fill="#B2BBC5" p-id="7536"></path><path d="M871.8 259.5c-10.5-80.1-78.2-143.8-158.9-149.1-84.4-5.5-157.7 50.1-177.8 128.6-17.3-2.8-34.8-4.6-52.8-4.6s-35.6 1.8-52.9 4.6c-22.2-85.4-109.1-145.1-202.7-125-68.5 14.7-122.5 71.4-133.3 140.6-11.6 74.8 25.3 144.2 86.8 177.9-17.6 40.3-27.6 84.8-27.6 131.5v294c0 30.9 25 55.9 55.9 55.9h547.4c30.9 0 55.9-25 55.9-55.9V564c0-46.8-10-91.3-27.7-131.7 59.8-33.1 97.1-100.3 87.7-172.8z m-706.6 3.9c6.6-36 33.6-66.3 68.7-76.7 57.8-17.2 112.8 19.1 125.7 71.7-57.5 23.1-106.8 62.1-143 111.3-37.2-19.6-59.6-61.3-51.4-106.3z m210 516.6c-24.6-43.5-20.8-93.4 4.6-130.9l102.5 96.3 102.5-96.3c13.7 20.3 21.2 44.3 21.2 68.9 0 76.3-69.5 136.7-148.5 121.2-34.5-6.7-65-28.7-82.3-59.2z m318.7 61.7H634c27.5-33.7 44.1-76.8 44.1-123.6 0-47.3-17.2-93.1-48.5-128.8L618.8 577H345.7l-10.8 12.3c-31.3 35.8-48.5 81.5-48.5 128.8 0 46.9 16.6 89.9 44.1 123.6h-59.9c-25.2 0-45.7-20.5-45.7-45.7V571.5c0-138.4 106.1-257.7 244.4-264.5 147.8-7.3 270.3 110.8 270.3 257v232c0 25.2-20.5 45.7-45.7 45.7z m53.9-472c-36.1-49.2-85.4-88.1-142.9-111.3 11.8-48.8 58.7-82.9 111.8-74.9 37.7 5.6 69.8 33.7 80.3 70.4 13.8 48.2-9.6 94.7-49.2 115.8z" fill="#242529" p-id="7537"></path><path d="M674.1 534.6c-23.8 23.8-62.7 23.8-86.5 0l-48.5-48.5c-23.8-23.8-23.8-62.7 0-86.5 23.8-23.8 62.7-23.8 86.5 0l48.5 48.5c23.8 23.8 23.8 62.7 0 86.5zM290.4 534.6c23.8 23.8 62.7 23.8 86.5 0l48.5-48.5c23.8-23.8 23.8-62.7 0-86.5-23.8-23.8-62.7-23.8-86.5 0l-48.5 48.5c-23.8 23.8-23.8 62.7 0 86.5z" fill="#242529" p-id="7538"></path></svg>