<?xml version="1.0" standalone="no"?><!DOCTYPE svg PUBLIC "-//W3C//DTD SVG 1.1//EN" "http://www.w3.org/Graphics/SVG/1.1/DTD/svg11.dtd"><svg t="1632124827814" class="icon" viewBox="0 0 1024 1024" version="1.1" xmlns="http://www.w3.org/2000/svg" p-id="4589" width="64" height="64" xmlns:xlink="http://www.w3.org/1999/xlink"><defs><style type="text/css"></style></defs><path d="M393.216 155.136l243.2-0.512c113.664-184.32 399.872-91.648 271.872 166.912 24.064 156.672 27.648 320.512 26.624 485.888-130.56 116.224-272.384 167.424-418.816 192.512-146.432-25.088-288.768-76.288-418.816-192.512-1.536-163.84 2.048-326.144 25.6-481.792C-9.728 64 279.04-30.72 393.216 155.136z m46.592 624.64v45.056h160.256v-45.056H439.808z m83.456-59.392c67.072-15.872 93.184-52.736 66.048-114.176H457.728c-32.256 77.312 9.216 101.376 65.536 114.176z m-7.68 161.792s189.44-43.008 215.552-94.72c17.408-34.816-36.864-150.528-106.496-208.896-34.304-28.672-109.056-26.624-109.056-26.624s-74.752-1.536-109.056 26.624c-69.632 58.368-123.904 174.08-106.496 208.896 26.112 51.2 215.552 94.72 215.552 94.72zM271.36 429.568s4.096 73.728 32.768 81.92c28.672 8.192 136.192 6.656 136.192 6.656s-28.672-68.608-71.68-87.04c-44.032-17.92-97.28-1.536-97.28-1.536z m506.88 0s-53.248-16.896-96.768 1.536c-43.52 18.432-71.68 87.04-71.68 87.04s108.032 1.536 136.192-6.656c27.648-8.192 32.256-81.92 32.256-81.92z m-70.144-232.448l129.024 81.92c16.896-32.768 29.184-80.896-2.56-109.056-29.184-26.112-89.088-34.304-126.464 27.136z m-515.584 81.92l129.024-81.92c-54.784-90.624-194.56-44.544-129.024 81.92z" fill="#231815" p-id="4590"></path></svg>